<svg xmlns="http://www.w3.org/2000/svg" viewBox="0 0 112.61 106.95"><defs><style>.cls-1{fill:#043544;}</style></defs><title>cca-plant</title><path class="cls-1" d="M280.71,414.54c6.67-3.51,13.49-6.77,20-10.61,7-4.12,13.79-8.54,20.33-13.31,3.63-2.65,7.28-5.84,9.58-9.61,2-3.26,2.35-7.62,3-11.56,1.41-8.58,4.95-16.2,9.73-23.33a23,23,0,0,1,2.9-2.78,38.21,38.21,0,0,1,.46,5.83,53.66,53.66,0,0,1-13.08,31.23c-8.45,9.87-18.67,17-29.57,23.53a21.88,21.88,0,0,0-2.24,1.44c-.79.6-1.48,1.31-2.64,2.36a12.3,12.3,0,0,0,2.23-.08c18.37-5.34,35.38-2,51.37,8,2.58,1.61,5.33,3,7.85,4.67A3.61,3.61,0,0,1,362,423c0,.55-1.49,1.43-2.32,1.46-14.9.49-29.79,2.45-44.66-.46-8.16-1.59-15.5-4.59-21.7-10.31-1.08-1-3.4-1.77-4.61-1.29-12.8,5.11-24.22,12.31-32.21,23.86-2,3-3.09,6.62-4.65,9.93a13.18,13.18,0,0,1-2.46,3.68c1-5.47,2-11,5.82-15.24,4.34-4.77,9-9.23,13.7-13.7a5.21,5.21,0,0,0,1.95-4.74,38,38,0,0,1,1.51-11.57c5.53-20.2,17-36.62,32.46-50.56,3.07-2.77,5.36-6.4,8.16-9.51.71-.8,2-1.1,3-1.62.22,1,.79,2.15.6,3.12-.6,3.11-1,6.34-2.32,9.2C309,367.06,303.9,379,297.76,390.33c-3.51,6.48-9,11.89-13.54,17.78l-4.15,5.36Z" transform="translate(-249.34 -342.95)"/></svg>