<svg xmlns="http://www.w3.org/2000/svg" viewBox="0 0 71.49 77.8"><defs><style>.cls-1{fill:#d1e4ec;}</style></defs><title>kd-diamond</title><path class="cls-1" d="M113.77,664.91c-3.28-2.86-7-5.48-10-8.78-6.65-7.41-13.2-14.86-17-24.43-1.73-4.4-4.88-8.28-7.66-12.21-2.61-3.67-2.41-4.43,1.25-7.16,7.28-5.43,14.37-11.12,21.51-16.74,3.35-2.63,6.58-5.43,10-7.93a4,4,0,0,1,3.34-.32c8.44,3.77,17.08,6.85,26.27,8.19,2.1.31,2.64,1.62,2.66,3.57.12,8.53.41,17.06.46,25.59,0,3.66-.08,7.16,3.28,9.71,1.55,1.18,1.06,2.24-.51,3.41-3,2.28-6.39,4.47-8.64,7.43a57.8,57.8,0,0,1-21,17.54C116.58,663.41,115.32,664.1,113.77,664.91Zm29.71-28c-.43-5.67-5.37-8.58-8.43-12.72a3.12,3.12,0,0,0-3-.36c-4.09,2.94-7.64,6.83-12,9.08-7.91,4-7.84,10.3-6.4,17.42.68,3.34,1.28,6.7,2,10.31,1.42-.58,2.48-.93,3.47-1.43C129.2,654.05,135.59,644.62,143.48,636.94Zm-31.43-1a44.63,44.63,0,0,0,4.4-2.65c4.76-3.75,9.4-7.65,14.2-11.34,1.69-1.31,1.89-2.42.79-4.2-4.46-7.26-8.79-14.6-13.23-21.87a38.69,38.69,0,0,0-3-3.66C112.71,606.84,109.93,620.77,112.05,635.93Zm-28-21.86,22.68,19.33c1.15-14.06,2.25-27.48,3.37-41.07Zm36.77-21.6,13.39,23.88c2.37-6.59,4.46-12.37,6.66-18.45ZM109.35,642c-2.11,1.62-4.06,3.3-6.19,4.71s-2.15,2.71-.56,4.35c3.1,3.19,6.25,6.34,9.37,9.51l.83-.4Zm-9.16,4.38,8.32-6.42L95,631.5C95.12,636.4,97.07,641.19,100.19,646.34Zm42.55-43-1-.17a20.41,20.41,0,0,0-1.14,2.64c-1,3.56-1.76,7.17-2.76,10.73-1.41,5-.6,7.27,4.35,10.25C142.39,618.8,142.56,611.08,142.74,603.37Z" transform="translate(-77.44 -587.11)"/></svg>