<svg xmlns="http://www.w3.org/2000/svg" viewBox="0 0 80.4 80.4"><title>pulse-dots</title><path d="M270.87,356.22h-5.4v5.4h5.4Z" transform="translate(-265.47 -356.22)"/><path d="M295.87,356.22h-5.4v5.4h5.4Z" transform="translate(-265.47 -356.22)"/><path d="M320.87,356.22h-5.4v5.4h5.4Z" transform="translate(-265.47 -356.22)"/><path d="M345.87,356.22h-5.4v5.4h5.4Z" transform="translate(-265.47 -356.22)"/><path d="M270.87,381.22h-5.4v5.4h5.4Z" transform="translate(-265.47 -356.22)"/><path d="M295.87,381.22h-5.4v5.4h5.4Z" transform="translate(-265.47 -356.22)"/><path d="M320.87,381.22h-5.4v5.4h5.4Z" transform="translate(-265.47 -356.22)"/><path d="M345.87,381.22h-5.4v5.4h5.4Z" transform="translate(-265.47 -356.22)"/><path d="M270.87,406.22h-5.4v5.4h5.4Z" transform="translate(-265.47 -356.22)"/><path d="M295.87,406.22h-5.4v5.4h5.4Z" transform="translate(-265.47 -356.22)"/><path d="M320.87,406.22h-5.4v5.4h5.4Z" transform="translate(-265.47 -356.22)"/><path d="M345.87,406.22h-5.4v5.4h5.4Z" transform="translate(-265.47 -356.22)"/><path d="M270.87,431.22h-5.4v5.4h5.4Z" transform="translate(-265.47 -356.22)"/><path d="M295.87,431.22h-5.4v5.4h5.4Z" transform="translate(-265.47 -356.22)"/><path d="M320.87,431.22h-5.4v5.4h5.4Z" transform="translate(-265.47 -356.22)"/><path d="M345.87,431.22h-5.4v5.4h5.4Z" transform="translate(-265.47 -356.22)"/></svg>